<svg xmlns="http://www.w3.org/2000/svg" width="1440" height="4591" viewBox="0 0 1440 4591"><defs><linearGradient id="g1" x1="0" y1="0" x2="1" y2="0"><stop offset="0%" stop-color="#7c86ff" stop-opacity="1"/><stop offset="100%" stop-color="#00d3f3" stop-opacity="1"/></linearGradient><linearGradient id="g2" x1="0" y1="0" x2="1" y2="1"><stop offset="0%" stop-color="#615fff" stop-opacity="1"/><stop offset="100%" stop-color="#00b8db" stop-opacity="1"/></linearGradient><linearGradient id="g3" x1="0" y1="0" x2="1" y2="1"><stop offset="0%" stop-color="#615fff" stop-opacity="1"/><stop offset="100%" stop-color="#00b8db" stop-opacity="1"/></linearGradient><linearGradient id="g4" x1="0" y1="0" x2="1" y2="1"><stop offset="0%" stop-color="#615fff" stop-opacity="1"/><stop offset="100%" stop-color="#00b8db" stop-opacity="1"/></linearGradient><linearGradient id="g5" x1="0" y1="0" x2="0" y2="1"><stop offset="0%" stop-color="#5037f5" stop-opacity="0.2"/><stop offset="100%" stop-color="#0f172b" stop-opacity="1"/></linearGradient><linearGradient id="g6" x1="0" y1="0" x2="1" y2="0"><stop offset="0%" stop-color="#615fff" stop-opacity="1"/><stop offset="100%" stop-color="#00b8db" stop-opacity="1"/></linearGradient><linearGradient id="g7" x1="0" y1="0" x2="1" y2="1"><stop offset="0%" stop-color="#4f39f6" stop-opacity="1"/><stop offset="100%" stop-color="#0092b8" stop-opacity="1"/></linearGradient></defs><rect id="Background" width="1440" height="4591" fill="#0f172b"/><g id="app"><g id="Box · R"><rect x="0" y="0" width="1440" height="4590.5" fill="#0f172b"/><g id="navbar"><g id="Navbar · R"><rect x="0" y="0" width="1440" height="65" fill="#0f162a" fill-opacity="0.8"/><rect x="0" y="64" width="1440" height="1" fill="#1d293d"/><g id="Button · R"><g id="Box · R"><rect x="112" y="16" width="32" height="32" rx="8" fill="#4f39f6"/><text x="122.73" y="38" font-family="Inter" font-size="16" font-weight="700" fill="#ffffff">R</text></g><text x="152" y="38" font-family="Inter" font-size="18" font-weight="700" letter-spacing="-0.45" fill="#ffffff">Reservo</text></g><g id="Button · Funciones"><text x="489.83" y="37" font-family="Inter" font-size="14" font-weight="500" fill="#cad5e2">Funciones</text></g><g id="Button · Cómo funciona"><text x="590.7" y="37" font-family="Inter" font-size="14" font-weight="500" fill="#cad5e2">Cómo funciona</text></g><g id="Button · Precios"><text x="724.64" y="37" font-family="Inter" font-size="14" font-weight="500" fill="#cad5e2">Precios</text></g><g id="Button · FAQ"><text x="806.61" y="37" font-family="Inter" font-size="14" font-weight="500" fill="#cad5e2">FAQ</text></g><g id="Button · Iniciar sesión"><text x="1102.48" y="37" font-family="Inter" font-size="14" font-weight="500" fill="#cad5e2">Iniciar sesión</text></g><g id="Button · Prueba gratis"><rect x="1206.67" y="14" width="121.33" height="36" rx="8" fill="#4f39f6"/><text x="1222.67" y="37" font-family="Inter" font-size="14" font-weight="500" fill="#ffffff">Prueba gratis</text></g></g></g><g id="Box · Nuevo · Recordatorios por WhatsA"><g id="hero"><g id="Section · Nuevo · Recordatorios por WhatsA"><g id="Box · Nuevo · Recordatorios por WhatsA"><rect x="112" y="194" width="257.11" height="26" rx="13" fill="#6258ff" fill-opacity="0.102"/><rect x="112.5" y="194.5" width="256.11" height="25" rx="12.5" fill="none" stroke="#5f5fff" stroke-opacity="0.2" stroke-width="1"/><g id="Box"><rect x="125" y="203" width="8" height="8" rx="4" fill="#7c86ff"/></g><text x="141" y="211" font-family="Inter" font-size="12" font-weight="600" fill="#7c86ff">Nuevo · Recordatorios por WhatsApp</text></g><text x="112" y="311" font-family="Inter" font-size="60" font-weight="800" letter-spacing="-1.5" fill="#ffffff">Las reservas de tu</text><text x="112" y="386" font-family="Inter" font-size="60" font-weight="800" letter-spacing="-1.5" fill="#ffffff">negocio,</text><g id="Box · en piloto automático"><text x="369.7" y="386" font-family="Inter" font-size="60" font-weight="800" letter-spacing="-1.5" fill="url(#g1)">en piloto</text><text x="112" y="461" font-family="Inter" font-size="60" font-weight="800" letter-spacing="-1.5" fill="url(#g1)">automático</text></g><text x="112" y="524" font-family="Inter" font-size="20" font-weight="400" fill="#90a1b9">Gimnasios, restaurantes, peluquerías o clínicas: tus clientes</text><text x="112" y="556.5" font-family="Inter" font-size="20" font-weight="400" fill="#90a1b9">reservan online 24/7 y tú te olvidas del teléfono y las</text><text x="112" y="589" font-family="Inter" font-size="20" font-weight="400" fill="#90a1b9">libretas.</text><g id="Button · Empieza gratis 14 días"><rect x="112" y="639.5" width="235.38" height="52" rx="12" fill="#4f39f6"/><text x="229.69" y="671.5" text-anchor="middle" font-family="Inter" font-size="16" font-weight="600" fill="#ffffff">Empieza gratis 14 días</text></g><g id="Button · Ver cómo funciona"><rect x="363.38" y="638.5" width="211.84" height="54" rx="12" fill="#1d293d"/><rect x="363.88" y="639" width="210.84" height="53" rx="11.5" fill="none" stroke="#314158" stroke-width="1"/><text x="469.3" y="671.5" text-anchor="middle" font-family="Inter" font-size="16" font-weight="600" fill="#e2e8f0">Ver cómo funciona</text></g><text x="112" y="731.5" font-family="Inter" font-size="14" font-weight="400" fill="#62748e">Sin tarjeta de crédito · Cancela cuando quieras</text><g id="Box · FitZone Gym"><rect x="752" y="217.75" width="576" height="494" rx="16" fill="#0f162a" fill-opacity="0.8"/><rect x="752.5" y="218.25" width="575" height="493" rx="15.5" fill="none" stroke="#1d293d" stroke-width="1"/><text x="777" y="257.75" font-family="Inter" font-size="14" font-weight="400" fill="#62748e">FitZone Gym</text><text x="777" y="280.75" font-family="Inter" font-size="16" font-weight="700" fill="#ffffff">Reserva tu clase</text><g id="Box · Abierto"><rect x="1234.13" y="251.75" width="68.88" height="26" rx="13" fill="#00ba76" fill-opacity="0.102"/><rect x="1234.63" y="252.25" width="67.88" height="25" rx="12.5" fill="none" stroke="#00be7d" stroke-opacity="0.2" stroke-width="1"/><text x="1247.13" y="268.75" font-family="Inter" font-size="12" font-weight="600" fill="#00d492">Abierto</text></g><text x="826.39" y="333.75" text-anchor="middle" font-family="Inter" font-size="14" font-weight="400" fill="#62748e">Lun</text><text x="826.4" y="353.75" text-anchor="middle" font-family="Inter" font-size="14" font-weight="700" fill="#e2e8f0">22</text><g id="Box · Mar"><rect x="883.8" y="310.75" width="98.8" height="56" rx="8" fill="#4f39f6"/><text x="933.19" y="333.75" text-anchor="middle" font-family="Inter" font-size="14" font-weight="400" fill="#ffffff">Mar</text><text x="933.2" y="353.75" text-anchor="middle" font-family="Inter" font-size="14" font-weight="700" fill="#ffffff">23</text></g><text x="1039.99" y="333.75" text-anchor="middle" font-family="Inter" font-size="14" font-weight="400" fill="#62748e">Mié</text><text x="1039.99" y="353.75" text-anchor="middle" font-family="Inter" font-size="14" font-weight="700" fill="#e2e8f0">24</text><text x="1146.78" y="333.75" text-anchor="middle" font-family="Inter" font-size="14" font-weight="400" fill="#62748e">Jue</text><text x="1146.78" y="353.75" text-anchor="middle" font-family="Inter" font-size="14" font-weight="700" fill="#e2e8f0">25</text><text x="1253.59" y="333.75" text-anchor="middle" font-family="Inter" font-size="14" font-weight="400" fill="#62748e">Vie</text><text x="1253.59" y="353.75" text-anchor="middle" font-family="Inter" font-size="14" font-weight="700" fill="#e2e8f0">26</text><g id="Item · Spinning"><rect x="777.5" y="391.25" width="525" height="65" rx="11.5" fill="none" stroke="#1d293d" stroke-width="1"/><text x="790" y="421.75" font-family="Inter" font-size="16" font-weight="600" fill="#ffffff">Spinning</text><text x="790" y="439.75" font-family="Inter" font-size="12" font-weight="400" fill="#90a1b9">08:00 · 45 min</text><text x="1242.16" y="427.75" font-family="Inter" font-size="12" font-weight="500" fill="#ff8904">2 plazas</text></g><g id="Item · Yoga"><rect x="777" y="468.75" width="526" height="68" rx="12" fill="#6258ff" fill-opacity="0.102"/><rect x="778" y="469.75" width="524" height="66" rx="11" fill="none" stroke="#615fff" stroke-width="2"/><text x="791" y="500.75" font-family="Inter" font-size="16" font-weight="600" fill="#ffffff">Yoga</text><text x="791" y="518.75" font-family="Inter" font-size="12" font-weight="400" fill="#90a1b9">10:30 · 60 min</text><text x="1211.3" y="506.75" font-family="Inter" font-size="12" font-weight="500" fill="#7c86ff">Seleccionado</text></g><g id="Item · CrossFit"><rect x="777.5" y="549.25" width="525" height="65" rx="11.5" fill="none" stroke="#1d293d" stroke-width="1"/><text x="790" y="579.75" font-family="Inter" font-size="16" font-weight="600" fill="#ffffff">CrossFit</text><text x="790" y="597.75" font-family="Inter" font-size="12" font-weight="400" fill="#90a1b9">19:00 · 50 min</text><text x="1242" y="585.75" font-family="Inter" font-size="12" font-weight="500" fill="#00d492">8 plazas</text></g><g id="Box · Confirmar reserva"><rect x="777" y="638.75" width="526" height="48" rx="12" fill="#4f39f6"/><text x="1039.99" y="668.75" text-anchor="middle" font-family="Inter" font-size="16" font-weight="600" fill="#ffffff">Confirmar reserva</text></g></g></g></g><g id="sectors"><g id="Section · PENSADO PARA CUALQUIER NEGOCIO C"><rect x="0" y="864.5" width="1440" height="284" fill="#020618" fill-opacity="0.502"/><rect x="0" y="864.5" width="1440" height="1" fill="#1d293d" fill-opacity="0.8"/><rect x="0" y="1147.5" width="1440" height="1" fill="#1d293d" fill-opacity="0.8"/><text x="719.99" y="928.5" text-anchor="middle" font-family="Inter" font-size="14" font-weight="600" letter-spacing="0.7" fill="#62748e">PENSADO PARA CUALQUIER NEGOCIO CON CITAS</text><g id="Box · Gimnasios"><rect x="112" y="965.5" width="292" height="134" rx="16" fill="#0f172b"/><rect x="112.5" y="966" width="291" height="133" rx="15.5" fill="none" stroke="#1d293d" stroke-width="1"/><g id="Box"><rect x="234" y="990.5" width="48" height="48" rx="12" fill="#6258ff" fill-opacity="0.102"/><rect x="234.5" y="991" width="47" height="47" rx="11.5" fill="none" stroke="#5f5fff" stroke-opacity="0.2" stroke-width="1"/><g id="icon" transform="translate(246 1002.5) scale(1)" fill="none" stroke="#7c86ff" stroke-width="2" stroke-linecap="round" stroke-linejoin="round"><path d="m6.5 6.5 11 11"></path> <path d="m21 21-1-1"></path> <path d="m3 3 1 1"></path> <path d="m18 22 4-4"></path> <path d="m2 6 4-4"></path> <path d="m3 10 7-7"></path> <path d="m14 21 7-7"></path></g></g><text x="258" y="1068.5" text-anchor="middle" font-family="Inter" font-size="16" font-weight="600" fill="#e2e8f0">Gimnasios</text></g><g id="Box · Restaurantes"><rect x="420" y="965.5" width="292" height="134" rx="16" fill="#0f172b"/><rect x="420.5" y="966" width="291" height="133" rx="15.5" fill="none" stroke="#1d293d" stroke-width="1"/><g id="Box"><rect x="542" y="990.5" width="48" height="48" rx="12" fill="#6258ff" fill-opacity="0.102"/><rect x="542.5" y="991" width="47" height="47" rx="11.5" fill="none" stroke="#5f5fff" stroke-opacity="0.2" stroke-width="1"/><g id="icon" transform="translate(554 1002.5) scale(1)" fill="none" stroke="#7c86ff" stroke-width="2" stroke-linecap="round" stroke-linejoin="round"><path d="M3 2v7c0 1.1.9 2 2 2h4a2 2 0 0 0 2-2V2"></path> <path d="M7 2v20"></path> <path d="M21 15V2a5 5 0 0 0-5 5v6c0 1.1.9 2 2 2h3Zm0 0v7"></path></g></g><text x="566" y="1068.5" text-anchor="middle" font-family="Inter" font-size="16" font-weight="600" fill="#e2e8f0">Restaurantes</text></g><g id="Box · Peluquerías"><rect x="728" y="965.5" width="292" height="134" rx="16" fill="#0f172b"/><rect x="728.5" y="966" width="291" height="133" rx="15.5" fill="none" stroke="#1d293d" stroke-width="1"/><g id="Box"><rect x="850" y="990.5" width="48" height="48" rx="12" fill="#6258ff" fill-opacity="0.102"/><rect x="850.5" y="991" width="47" height="47" rx="11.5" fill="none" stroke="#5f5fff" stroke-opacity="0.2" stroke-width="1"/><g id="icon" transform="translate(862 1002.5) scale(1)" fill="none" stroke="#7c86ff" stroke-width="2" stroke-linecap="round" stroke-linejoin="round"><circle cx="6" cy="6" r="3"></circle> <path d="M8.12 8.12 12 12"></path> <path d="M20 4 8.12 15.88"></path> <circle cx="6" cy="18" r="3"></circle> <path d="M14.8 14.8 20 20"></path></g></g><text x="873.99" y="1068.5" text-anchor="middle" font-family="Inter" font-size="16" font-weight="600" fill="#e2e8f0">Peluquerías</text></g><g id="Box · Clínicas"><rect x="1036" y="965.5" width="292" height="134" rx="16" fill="#0f172b"/><rect x="1036.5" y="966" width="291" height="133" rx="15.5" fill="none" stroke="#1d293d" stroke-width="1"/><g id="Box"><rect x="1158" y="990.5" width="48" height="48" rx="12" fill="#6258ff" fill-opacity="0.102"/><rect x="1158.5" y="991" width="47" height="47" rx="11.5" fill="none" stroke="#5f5fff" stroke-opacity="0.2" stroke-width="1"/><g id="icon" transform="translate(1170 1002.5) scale(1)" fill="none" stroke="#7c86ff" stroke-width="2" stroke-linecap="round" stroke-linejoin="round"><path d="M11 2v2"></path> <path d="M5 2v2"></path> <path d="M5 3H4a2 2 0 0 0-2 2v4a6 6 0 0 0 12 0V5a2 2 0 0 0-2-2h-1"></path> <path d="M8 15a6 6 0 0 0 12 0v-3"></path> <circle cx="20" cy="10" r="2"></circle></g></g><text x="1182" y="1068.5" text-anchor="middle" font-family="Inter" font-size="16" font-weight="600" fill="#e2e8f0">Clínicas</text></g></g></g><g id="features"><g id="funciones"><text x="720" y="1257.5" text-anchor="middle" font-family="Inter" font-size="30" font-weight="700" fill="#ffffff">Todo lo que necesitas para gestionar reservas</text><text x="720" y="1298.5" text-anchor="middle" font-family="Inter" font-size="16" font-weight="400" fill="#90a1b9">Una sola herramienta para tu agenda, tus clientes y tus cobros.</text><g id="Box · 📅"><rect x="112" y="1368.5" width="384" height="203.5" rx="16" fill="#0f172b"/><rect x="112.5" y="1369" width="383" height="202.5" rx="15.5" fill="none" stroke="#1d293d" stroke-width="1"/><text x="145" y="1434.5" font-family="Inter" font-size="36" font-weight="400" fill="#f1f5f9">📅</text><text x="145" y="1478.5" font-family="Inter" font-size="20" font-weight="600" fill="#ffffff">Reservas online 24/7</text><text x="145" y="1509.5" font-family="Inter" font-size="14" font-weight="400" fill="#90a1b9">Tu propia página de reservas lista en minutos,</text><text x="145" y="1532.25" font-family="Inter" font-size="14" font-weight="400" fill="#90a1b9">integrable en tu web o Instagram.</text></g><g id="Box · 🔔"><rect x="528" y="1368.5" width="384" height="203.5" rx="16" fill="#0f172b"/><rect x="528.5" y="1369" width="383" height="202.5" rx="15.5" fill="none" stroke="#1d293d" stroke-width="1"/><text x="561" y="1434.5" font-family="Inter" font-size="36" font-weight="400" fill="#f1f5f9">🔔</text><text x="561" y="1478.5" font-family="Inter" font-size="20" font-weight="600" fill="#ffffff">Recordatorios automáticos</text><text x="561" y="1509.5" font-family="Inter" font-size="14" font-weight="400" fill="#90a1b9">Email, SMS y WhatsApp antes de cada cita.</text><text x="561" y="1532.25" font-family="Inter" font-size="14" font-weight="400" fill="#90a1b9">Reduce los &quot;no-shows&quot; hasta un 70%.</text></g><g id="Box · 💳"><rect x="944" y="1368.5" width="384" height="203.5" rx="16" fill="#0f172b"/><rect x="944.5" y="1369" width="383" height="202.5" rx="15.5" fill="none" stroke="#1d293d" stroke-width="1"/><text x="977" y="1434.5" font-family="Inter" font-size="36" font-weight="400" fill="#f1f5f9">💳</text><text x="977" y="1478.5" font-family="Inter" font-size="20" font-weight="600" fill="#ffffff">Pagos y señales</text><text x="977" y="1509.5" font-family="Inter" font-size="14" font-weight="400" fill="#90a1b9">Cobra por adelantado, pide una señal o vende</text><text x="977" y="1532.25" font-family="Inter" font-size="14" font-weight="400" fill="#90a1b9">bonos y membresías.</text></g><g id="Box · 👥"><rect x="112" y="1604" width="384" height="203.5" rx="16" fill="#0f172b"/><rect x="112.5" y="1604.5" width="383" height="202.5" rx="15.5" fill="none" stroke="#1d293d" stroke-width="1"/><text x="145" y="1670" font-family="Inter" font-size="36" font-weight="400" fill="#f1f5f9">👥</text><text x="145" y="1714" font-family="Inter" font-size="20" font-weight="600" fill="#ffffff">Gestión de equipo</text><text x="145" y="1745" font-family="Inter" font-size="14" font-weight="400" fill="#90a1b9">Horarios por empleado, salas o mesas. Cada</text><text x="145" y="1767.75" font-family="Inter" font-size="14" font-weight="400" fill="#90a1b9">uno ve solo su agenda.</text></g><g id="Box · 📊"><rect x="528" y="1604" width="384" height="203.5" rx="16" fill="#0f172b"/><rect x="528.5" y="1604.5" width="383" height="202.5" rx="15.5" fill="none" stroke="#1d293d" stroke-width="1"/><text x="561" y="1670" font-family="Inter" font-size="36" font-weight="400" fill="#f1f5f9">📊</text><text x="561" y="1714" font-family="Inter" font-size="20" font-weight="600" fill="#ffffff">Estadísticas</text><text x="561" y="1745" font-family="Inter" font-size="14" font-weight="400" fill="#90a1b9">Ocupación, ingresos y clientes recurrentes en</text><text x="561" y="1767.75" font-family="Inter" font-size="14" font-weight="400" fill="#90a1b9">un panel claro.</text></g><g id="Box · 📱"><rect x="944" y="1604" width="384" height="203.5" rx="16" fill="#0f172b"/><rect x="944.5" y="1604.5" width="383" height="202.5" rx="15.5" fill="none" stroke="#1d293d" stroke-width="1"/><text x="977" y="1670" font-family="Inter" font-size="36" font-weight="400" fill="#f1f5f9">📱</text><text x="977" y="1714" font-family="Inter" font-size="20" font-weight="600" fill="#ffffff">App móvil</text><text x="977" y="1745" font-family="Inter" font-size="14" font-weight="400" fill="#90a1b9">Gestiona tu negocio desde el móvil, estés</text><text x="977" y="1767.75" font-family="Inter" font-size="14" font-weight="400" fill="#90a1b9">donde estés.</text></g></g></g><g id="how-it-works"><g id="como-funciona"><rect x="0" y="1887.5" width="1440" height="430" fill="#020618" fill-opacity="0.502"/><rect x="0" y="1887.5" width="1440" height="1" fill="#1d293d" fill-opacity="0.8"/><rect x="0" y="2316.5" width="1440" height="1" fill="#1d293d" fill-opacity="0.8"/><text x="720" y="1997.5" text-anchor="middle" font-family="Inter" font-size="30" font-weight="700" fill="#ffffff">Empieza en 3 pasos</text><text x="720" y="2038.5" text-anchor="middle" font-family="Inter" font-size="16" font-weight="400" fill="#90a1b9">En menos de 10 minutos tendrás tu agenda online.</text><g id="Item · 1"><g id="Box · 1"><rect x="273.33" y="2108.5" width="56" height="56" rx="28" fill="url(#g2)"/><text x="301.33" y="2143.5" text-anchor="middle" font-family="Inter" font-size="20" font-weight="700" fill="#ffffff">1</text></g><text x="301.32" y="2201.5" text-anchor="middle" font-family="Inter" font-size="20" font-weight="600" fill="#ffffff">Crea tu cuenta</text><text x="301.33" y="2231.5" text-anchor="middle" font-family="Inter" font-size="14" font-weight="400" fill="#90a1b9">Regístrate gratis y elige el tipo de negocio.</text></g><g id="Item · 2"><g id="Box · 2"><rect x="691.98" y="2108.5" width="56" height="56" rx="28" fill="url(#g3)"/><text x="719.98" y="2143.5" text-anchor="middle" font-family="Inter" font-size="20" font-weight="700" fill="#ffffff">2</text></g><text x="719.99" y="2201.5" text-anchor="middle" font-family="Inter" font-size="20" font-weight="600" fill="#ffffff">Configura tus servicios</text><text x="719.99" y="2231.5" text-anchor="middle" font-family="Inter" font-size="14" font-weight="400" fill="#90a1b9">Añade horarios, clases, mesas o servicios y sus precios.</text></g><g id="Item · 3"><g id="Box · 3"><rect x="1110.66" y="2108.5" width="56" height="56" rx="28" fill="url(#g4)"/><text x="1138.65" y="2143.5" text-anchor="middle" font-family="Inter" font-size="20" font-weight="700" fill="#ffffff">3</text></g><text x="1138.66" y="2201.5" text-anchor="middle" font-family="Inter" font-size="20" font-weight="600" fill="#ffffff">Comparte tu enlace</text><text x="1138.65" y="2231.5" text-anchor="middle" font-family="Inter" font-size="14" font-weight="400" fill="#90a1b9">Tus clientes empiezan a reservar al instante.</text></g></g></g><g id="pricing"><g id="precios"><text x="720" y="2426.5" text-anchor="middle" font-family="Inter" font-size="30" font-weight="700" fill="#ffffff">Precios simples y transparentes</text><text x="719.99" y="2467.5" text-anchor="middle" font-family="Inter" font-size="16" font-weight="400" fill="#90a1b9">14 días gratis en cualquier plan. Sin permanencia.</text><g id="Box · Básico"><rect x="112" y="2537.5" width="384" height="404" rx="16" fill="#0f172b"/><rect x="112.5" y="2538" width="383" height="403" rx="15.5" fill="none" stroke="#1d293d" stroke-width="1"/><text x="145" y="2591.5" font-family="Inter" font-size="20" font-weight="600" fill="#ffffff">Básico</text><text x="145" y="2617.5" font-family="Inter" font-size="14" font-weight="400" fill="#90a1b9">Para empezar</text><text x="145" y="2679.5" font-family="Inter" font-size="36" font-weight="800" fill="#ffffff">19€</text><text x="209.63" y="2679.5" font-family="Inter" font-size="16" font-weight="400" fill="#90a1b9">/mes</text><g id="Item · ✔"><text x="145" y="2725.5" font-family="Inter" font-size="14" font-weight="400" fill="#7c86ff">✔</text><text x="164.73" y="2725.5" font-family="Inter" font-size="14" font-weight="400" fill="#cad5e2">1 profesional</text></g><g id="Item · ✔"><text x="145" y="2757.5" font-family="Inter" font-size="14" font-weight="400" fill="#7c86ff">✔</text><text x="164.73" y="2757.5" font-family="Inter" font-size="14" font-weight="400" fill="#cad5e2">Reservas ilimitadas</text></g><g id="Item · ✔"><text x="145" y="2789.5" font-family="Inter" font-size="14" font-weight="400" fill="#7c86ff">✔</text><text x="164.73" y="2789.5" font-family="Inter" font-size="14" font-weight="400" fill="#cad5e2">Recordatorios por email</text></g><g id="Button · Elegir plan"><rect x="145" y="2858.5" width="318" height="50" rx="12" fill="#1d293d"/><rect x="145.5" y="2859" width="317" height="49" rx="11.5" fill="none" stroke="#314158" stroke-width="1"/><text x="304" y="2889.5" text-anchor="middle" font-family="Inter" font-size="16" font-weight="600" fill="#e2e8f0">Elegir plan</text></g></g><g id="Box · Más popular"><rect x="528" y="2537.5" width="384" height="404" rx="16" fill="url(#g5)"/><rect x="529" y="2538.5" width="382" height="402" rx="15" fill="none" stroke="#615fff" stroke-width="2"/><g id="Box · Más popular"><rect x="671.61" y="2527.5" width="96.78" height="24" rx="12" fill="url(#g6)"/><text x="683.61" y="2543.5" font-family="Inter" font-size="12" font-weight="700" fill="#ffffff">Más popular</text></g><text x="562" y="2592.5" font-family="Inter" font-size="20" font-weight="600" fill="#ffffff">Pro</text><text x="562" y="2618.5" font-family="Inter" font-size="14" font-weight="400" fill="#90a1b9">Para negocios en crecimiento</text><text x="562" y="2680.5" font-family="Inter" font-size="36" font-weight="800" fill="#ffffff">49€</text><text x="635.52" y="2680.5" font-family="Inter" font-size="16" font-weight="400" fill="#90a1b9">/mes</text><g id="Item · ✔"><text x="562" y="2726.5" font-family="Inter" font-size="14" font-weight="400" fill="#7c86ff">✔</text><text x="581.73" y="2726.5" font-family="Inter" font-size="14" font-weight="400" fill="#cad5e2">Hasta 10 profesionales</text></g><g id="Item · ✔"><text x="562" y="2758.5" font-family="Inter" font-size="14" font-weight="400" fill="#7c86ff">✔</text><text x="581.73" y="2758.5" font-family="Inter" font-size="14" font-weight="400" fill="#cad5e2">SMS y WhatsApp</text></g><g id="Item · ✔"><text x="562" y="2790.5" font-family="Inter" font-size="14" font-weight="400" fill="#7c86ff">✔</text><text x="581.73" y="2790.5" font-family="Inter" font-size="14" font-weight="400" fill="#cad5e2">Pagos online y bonos</text></g><g id="Item · ✔"><text x="562" y="2822.5" font-family="Inter" font-size="14" font-weight="400" fill="#7c86ff">✔</text><text x="581.73" y="2822.5" font-family="Inter" font-size="14" font-weight="400" fill="#cad5e2">Estadísticas</text></g><g id="Button · Empezar prueba"><rect x="562" y="2859.5" width="316" height="48" rx="12" fill="#4f39f6"/><text x="719.99" y="2889.5" text-anchor="middle" font-family="Inter" font-size="16" font-weight="600" fill="#ffffff">Empezar prueba</text></g></g><g id="Box · Empresa"><rect x="944" y="2537.5" width="384" height="404" rx="16" fill="#0f172b"/><rect x="944.5" y="2538" width="383" height="403" rx="15.5" fill="none" stroke="#1d293d" stroke-width="1"/><text x="977" y="2591.5" font-family="Inter" font-size="20" font-weight="600" fill="#ffffff">Empresa</text><text x="977" y="2617.5" font-family="Inter" font-size="14" font-weight="400" fill="#90a1b9">Cadenas y franquicias</text><text x="977" y="2679.5" font-family="Inter" font-size="36" font-weight="800" fill="#ffffff">A medida</text><g id="Item · ✔"><text x="977" y="2725.5" font-family="Inter" font-size="14" font-weight="400" fill="#7c86ff">✔</text><text x="996.73" y="2725.5" font-family="Inter" font-size="14" font-weight="400" fill="#cad5e2">Profesionales ilimitados</text></g><g id="Item · ✔"><text x="977" y="2757.5" font-family="Inter" font-size="14" font-weight="400" fill="#7c86ff">✔</text><text x="996.73" y="2757.5" font-family="Inter" font-size="14" font-weight="400" fill="#cad5e2">Varios locales</text></g><g id="Item · ✔"><text x="977" y="2789.5" font-family="Inter" font-size="14" font-weight="400" fill="#7c86ff">✔</text><text x="996.73" y="2789.5" font-family="Inter" font-size="14" font-weight="400" fill="#cad5e2">API e integraciones</text></g><g id="Item · ✔"><text x="977" y="2821.5" font-family="Inter" font-size="14" font-weight="400" fill="#7c86ff">✔</text><text x="996.73" y="2821.5" font-family="Inter" font-size="14" font-weight="400" fill="#cad5e2">Soporte prioritario</text></g><g id="Button · Contactar"><rect x="977" y="2858.5" width="318" height="50" rx="12" fill="#1d293d"/><rect x="977.5" y="2859" width="317" height="49" rx="11.5" fill="none" stroke="#314158" stroke-width="1"/><text x="1135.99" y="2889.5" text-anchor="middle" font-family="Inter" font-size="16" font-weight="600" fill="#e2e8f0">Contactar</text></g></g></g></g><g id="testimonials"><g id="Section · Lo que dicen nuestros clientes"><rect x="0" y="3021.5" width="1440" height="486" fill="#020618" fill-opacity="0.502"/><rect x="0" y="3021.5" width="1440" height="1" fill="#1d293d" fill-opacity="0.8"/><rect x="0" y="3506.5" width="1440" height="1" fill="#1d293d" fill-opacity="0.8"/><text x="720" y="3131.5" text-anchor="middle" font-family="Inter" font-size="30" font-weight="700" fill="#ffffff">Lo que dicen nuestros clientes</text><g id="Testimonial · ★★★★★"><rect x="112" y="3202.5" width="384" height="224" rx="16" fill="#0f172b"/><rect x="112.5" y="3203" width="383" height="223" rx="15.5" fill="none" stroke="#1d293d" stroke-width="1"/><text x="145" y="3250.5" font-family="Inter" font-size="14" font-weight="400" fill="#ffb900">★★★★★</text><text x="145" y="3290.5" font-family="Inter" font-size="16" font-weight="400" fill="#cad5e2">&quot;Hemos dejado de perder clases por</text><text x="145" y="3316.5" font-family="Inter" font-size="16" font-weight="400" fill="#cad5e2">gente que no aparece. Los recordatorios</text><text x="145" y="3342.5" font-family="Inter" font-size="16" font-weight="400" fill="#cad5e2">funcionan de maravilla.&quot;</text><text x="145" y="3388.5" font-family="Inter" font-size="14" font-weight="600" fill="#ffffff">Marta G. ·</text><text x="214.53" y="3388.5" font-family="Inter" font-size="14" font-weight="400" fill="#62748e">Gimnasio</text></g><g id="Testimonial · ★★★★★"><rect x="528" y="3202.5" width="384" height="224" rx="16" fill="#0f172b"/><rect x="528.5" y="3203" width="383" height="223" rx="15.5" fill="none" stroke="#1d293d" stroke-width="1"/><text x="561" y="3250.5" font-family="Inter" font-size="14" font-weight="400" fill="#ffb900">★★★★★</text><text x="561" y="3290.5" font-family="Inter" font-size="16" font-weight="400" fill="#cad5e2">&quot;Los fines de semana el teléfono no</text><text x="561" y="3316.5" font-family="Inter" font-size="16" font-weight="400" fill="#cad5e2">paraba. Ahora el 80% de las reservas</text><text x="561" y="3342.5" font-family="Inter" font-size="16" font-weight="400" fill="#cad5e2">llegan solas.&quot;</text><text x="561" y="3388.5" font-family="Inter" font-size="14" font-weight="600" fill="#ffffff">Jordi P. ·</text><text x="623.08" y="3388.5" font-family="Inter" font-size="14" font-weight="400" fill="#62748e">Restaurante</text></g><g id="Testimonial · ★★★★★"><rect x="944" y="3202.5" width="384" height="224" rx="16" fill="#0f172b"/><rect x="944.5" y="3203" width="383" height="223" rx="15.5" fill="none" stroke="#1d293d" stroke-width="1"/><text x="977" y="3250.5" font-family="Inter" font-size="14" font-weight="400" fill="#ffb900">★★★★★</text><text x="977" y="3290.5" font-family="Inter" font-size="16" font-weight="400" fill="#cad5e2">&quot;Muy fácil de configurar. En una tarde ya</text><text x="977" y="3316.5" font-family="Inter" font-size="16" font-weight="400" fill="#cad5e2">tenía toda la agenda del salón online.&quot;</text><text x="977" y="3362.5" font-family="Inter" font-size="14" font-weight="600" fill="#ffffff">Laura S. ·</text><text x="1043.33" y="3362.5" font-family="Inter" font-size="14" font-weight="400" fill="#62748e">Peluquería</text></g></g></g><g id="faq"><g id="preguntas"><text x="720" y="3616.5" text-anchor="middle" font-family="Inter" font-size="30" font-weight="700" fill="#ffffff">Preguntas frecuentes</text><g id="FAQ item · ¿Necesito conocimientos técnicos"><rect x="368" y="3671.5" width="704" height="70" rx="16" fill="#0f172b"/><rect x="368.5" y="3672" width="703" height="69" rx="15.5" fill="none" stroke="#1d293d" stroke-width="1"/><text x="389" y="3712.5" font-family="Inter" font-size="16" font-weight="600" fill="#ffffff">¿Necesito conocimientos técnicos?</text><text x="1037.53" y="3713.5" font-family="Inter" font-size="20" font-weight="600" fill="#7c86ff">+</text></g><g id="FAQ item · ¿Puedo cancelar en cualquier mom"><rect x="368" y="3757.5" width="704" height="70" rx="16" fill="#0f172b"/><rect x="368.5" y="3758" width="703" height="69" rx="15.5" fill="none" stroke="#1d293d" stroke-width="1"/><text x="389" y="3798.5" font-family="Inter" font-size="16" font-weight="600" fill="#ffffff">¿Puedo cancelar en cualquier momento?</text><text x="1037.53" y="3799.5" font-family="Inter" font-size="20" font-weight="600" fill="#7c86ff">+</text></g><g id="FAQ item · ¿Mis clientes tienen que descarg"><rect x="368" y="3843.5" width="704" height="70" rx="16" fill="#0f172b"/><rect x="368.5" y="3844" width="703" height="69" rx="15.5" fill="none" stroke="#1d293d" stroke-width="1"/><text x="389" y="3884.5" font-family="Inter" font-size="16" font-weight="600" fill="#ffffff">¿Mis clientes tienen que descargar una app?</text><text x="1037.53" y="3885.5" font-family="Inter" font-size="20" font-weight="600" fill="#7c86ff">+</text></g><g id="FAQ item · ¿Sirve para varios locales?"><rect x="368" y="3929.5" width="704" height="70" rx="16" fill="#0f172b"/><rect x="368.5" y="3930" width="703" height="69" rx="15.5" fill="none" stroke="#1d293d" stroke-width="1"/><text x="389" y="3970.5" font-family="Inter" font-size="16" font-weight="600" fill="#ffffff">¿Sirve para varios locales?</text><text x="1037.53" y="3971.5" font-family="Inter" font-size="20" font-weight="600" fill="#7c86ff">+</text></g></g></g><g id="cta"><g id="contacto"><g id="Box · ¿Listo para llenar tu agenda?"><rect x="208" y="4079.5" width="1024" height="294" rx="24" fill="url(#g7)"/><rect x="208.5" y="4080" width="1023" height="293" rx="23.5" fill="none" stroke="#615eff" stroke-opacity="0.298" stroke-width="1"/><text x="720" y="4177.5" text-anchor="middle" font-family="Inter" font-size="36" font-weight="700" fill="#ffffff">¿Listo para llenar tu agenda?</text><text x="719.99" y="4220.5" text-anchor="middle" font-family="Inter" font-size="18" font-weight="400" fill="#e0e7ff">Déjanos tu email y te enviamos acceso a la prueba gratuita.</text><g id="signup-form"><g id="signup-email"><rect x="496" y="4260.5" width="320.16" height="48" rx="12" fill="#ffffff" fill-opacity="0.949"/><text x="512" y="4290.1" font-family="Inter" font-size="16" font-weight="400" fill="#62748e">tu@email.com</text></g><g id="Box · Empezar"><rect x="828.16" y="4260.5" width="115.84" height="48" rx="12" fill="#0f172b"/><text x="886.08" y="4290.5" text-anchor="middle" font-family="Inter" font-size="16" font-weight="600" fill="#ffffff">Empezar</text></g></g></g></g></g></g><g id="footer"><g id="Footer · R"><rect x="0" y="4469.5" width="1440" height="121" fill="#020618"/><rect x="0" y="4469.5" width="1440" height="1" fill="#1d293d"/><g id="Box · R"><rect x="112" y="4518.5" width="24" height="24" rx="4" fill="#4f39f6"/><text x="120.05" y="4534.5" font-family="Inter" font-size="12" font-weight="700" fill="#ffffff">R</text></g><text x="144" y="4536.5" font-family="Inter" font-size="16" font-weight="700" fill="#e2e8f0">Reservo</text><text x="507.36" y="4534.5" font-family="Inter" font-size="12" font-weight="400" fill="#62748e">© 2026 Reservo. Todos los derechos reservados.</text><g id="Button · Privacidad"><text x="1088.64" y="4535.5" font-family="Inter" font-size="14" font-weight="400" fill="#90a1b9">Privacidad</text></g><g id="Button · Términos"><text x="1182.44" y="4535.5" font-family="Inter" font-size="14" font-weight="400" fill="#90a1b9">Términos</text></g><g id="Button · Contacto"><text x="1267.75" y="4535.5" font-family="Inter" font-size="14" font-weight="400" fill="#90a1b9">Contacto</text></g></g></g></g></g></svg>